<mxfile host="app.diagrams.net" modified="2022-12-05T19:43:37.079Z" agent="5.0 (Macintosh; Intel Mac OS X 10_15_7) AppleWebKit/537.36 (KHTML, like Gecko) Chrome/107.0.0.0 Safari/537.36" etag="HieZbbYEymXEWYs8E_eo" version="20.6.0" type="github">
  <diagram id="9joGUydrtn-kThI4bQew" name="Estructura de la prueba">
    <mxGraphModel dx="2553" dy="1153" grid="1" gridSize="10" guides="1" tooltips="1" connect="1" arrows="1" fold="1" page="1" pageScale="1" pageWidth="850" pageHeight="1100" math="0" shadow="0">
      <root>
        <mxCell id="0" />
        <mxCell id="1" parent="0" />
      </root>
    </mxGraphModel>
  </diagram>
</mxfile>
